<svg width="94" height="134" viewBox="0 0 94 134" fill="none" xmlns="http://www.w3.org/2000/svg">
<path fill-rule="evenodd" clip-rule="evenodd" d="M47.0007 13.6693C28.5912 13.6693 13.6673 28.5931 13.6673 47.0026C13.6673 65.5886 24.412 92.7847 47.0006 117.371C69.5893 92.7847 80.334 65.5886 80.334 47.0026C80.334 28.5931 65.4101 13.6693 47.0007 13.6693ZM0.333984 47.0026C0.333984 21.2293 21.2274 0.335938 47.0007 0.335938C72.7739 0.335938 93.6673 21.2293 93.6673 47.0026C93.6673 71.3506 79.2377 104.194 51.7147 131.717C49.1112 134.32 44.8901 134.32 42.2866 131.717C14.7636 104.194 0.333984 71.3506 0.333984 47.0026Z" fill="#102025"/>
<path fill-rule="evenodd" clip-rule="evenodd" d="M47.0007 53.6693C50.6826 53.6693 53.6673 50.6845 53.6673 47.0026C53.6673 43.3207 50.6826 40.3359 47.0007 40.3359C43.3188 40.3359 40.334 43.3207 40.334 47.0026C40.334 50.6845 43.3188 53.6693 47.0007 53.6693ZM47.0007 67.0026C58.0463 67.0026 67.0007 58.0483 67.0007 47.0026C67.0007 35.9569 58.0463 27.0026 47.0007 27.0026C35.955 27.0026 27.0007 35.9569 27.0007 47.0026C27.0007 58.0483 35.955 67.0026 47.0007 67.0026Z" fill="#102025"/>
</svg>
