<svg width="134" height="108" viewBox="0 0 134 108" fill="none" xmlns="http://www.w3.org/2000/svg">
<path fill-rule="evenodd" clip-rule="evenodd" d="M20.333 0.667969C9.28731 0.667969 0.333008 9.62227 0.333008 20.668V87.3346C0.333008 98.3803 9.28731 107.335 20.333 107.335H113.666C124.712 107.335 133.666 98.3803 133.666 87.3346V20.668C133.666 9.62228 124.712 0.667969 113.666 0.667969H20.333ZM19.1698 14.1024C19.5475 14.036 19.9362 14.0013 20.333 14.0013H113.666C114.063 14.0013 114.452 14.036 114.83 14.1025L66.9998 45.9891L19.1698 14.1024ZM13.6663 26.4582V87.3346C13.6663 91.0165 16.6511 94.0013 20.333 94.0013H113.666C117.348 94.0013 120.333 91.0165 120.333 87.3346V26.4583L70.6978 59.5484C68.4584 61.0413 65.5411 61.0413 63.3018 59.5484L13.6663 26.4582Z" fill="#102025"/>
</svg>
