<svg width="120" height="120" viewBox="0 0 120 120" fill="none" xmlns="http://www.w3.org/2000/svg">
<path fill-rule="evenodd" clip-rule="evenodd" d="M9.8971 8.59954C7.98935 10.5094 6.24011 12.8521 5.10909 14.8921C3.68855 17.3853 2.63987 20.1194 2.00762 22.9621L1.67859 24.6796C-3.50646 50.9862 3.07852 74.519 24.8163 96.1019C39.0789 110.263 49.8941 116.082 64.7028 118.207C67.1025 118.551 69.609 118.809 72.5914 119.03L78.7232 119.403C82.145 119.58 87.8467 119.864 89.7931 119.975C92.3563 120.121 95.748 119.63 100.306 118.563L100.997 118.361C104.976 116.955 108.609 114.675 111.651 111.629C122.783 100.484 122.783 82.4156 111.651 71.271L110.659 70.3238C99.8973 60.5246 83.441 60.4351 72.5788 70.1033L71.2912 71.2688L64.4086 78.1588C62.9004 79.6687 60.5256 79.8732 58.7818 78.6434C55.1543 76.085 45.5162 66.6518 43.1634 63.4368C41.8844 61.6891 42.0701 59.2687 43.6007 57.7371L49.6644 51.6704L50.1831 51.2485L50.9532 50.5349C51.092 50.4011 51.2336 50.2622 51.3738 50.1218C62.8273 38.6557 62.8273 20.0656 51.3738 8.59954C39.9203 -2.86651 21.3506 -2.86651 9.8971 8.59954ZM19.2003 17.9129C25.5158 11.5905 35.7552 11.5905 42.0706 17.9129C48.3861 24.2353 48.3861 34.486 42.0706 40.8084C41.6799 41.1996 41.2729 41.5681 40.8507 41.9136L34.2999 48.4213C28.177 54.5484 27.4342 64.23 32.5501 71.2208C35.7519 75.5959 46.4173 86.0345 51.2046 89.4109L52.1282 90.02C58.9992 94.249 67.941 93.2493 73.7118 87.4722L80.0746 81.1004L80.1617 81.0563L80.7747 80.4563C86.7793 74.5795 96.4013 74.6316 102.348 80.5844C108.342 86.5853 108.342 96.3147 102.348 102.316L101.325 103.253C100.268 104.138 99.11 104.868 97.8763 105.432L96.8808 105.832L95.1896 106.204L93.4035 106.539C92.06 106.764 91.0864 106.856 90.5408 106.825L77.182 106.131L73.6428 105.901L70.5729 105.642C69.134 105.504 67.8233 105.349 66.5691 105.169C54.7138 103.468 46.429 99.0102 34.081 86.7502C16.139 68.936 10.5777 50.5087 14.2437 29.0844L14.6272 27.0016C14.9747 24.8685 15.6184 23.0304 16.5755 21.3501C17.1582 20.3 18.1716 18.9428 19.2003 17.9129Z" fill="#102025"/>
</svg>
