<svg width="48" height="48" viewBox="0 0 48 48" fill="none" xmlns="http://www.w3.org/2000/svg">
<path d="M10.5263 47.5826H0.842105V15.8609H10.9474V47.5826H10.5263ZM5.89474 11.687C2.52631 11.687 0 8.76522 0 5.84348C0 2.50435 2.52631 0 5.89474 0C9.26316 0 11.7895 2.50435 11.7895 5.84348C11.3684 8.76522 8.8421 11.687 5.89474 11.687ZM48 47.5826H37.8947V32.1391C37.8947 28.3826 37.8947 23.7913 32.8421 23.7913C27.7895 23.7913 26.9474 27.9652 26.9474 32.1391V48H16.8421V15.8609H26.5263V20.0348C27.7895 17.5304 31.1579 15.0261 35.7895 15.0261C45.8947 15.0261 47.5789 21.7043 47.5789 30.0522V47.5826H48Z" fill="#102025"/>
</svg>
