<svg width="58" height="47" viewBox="0 0 58 47" fill="none" xmlns="http://www.w3.org/2000/svg">
<path d="M57.5473 9.63264C57.7258 9.48581 57.8597 9.29283 57.934 9.07519C58.0083 8.85756 58.0201 8.62379 57.9681 8.39992C57.9161 8.17605 57.8023 7.97084 57.6394 7.80715C57.4764 7.64346 57.2708 7.5277 57.0453 7.47275L55.0627 6.97622C54.8824 6.93157 54.7144 6.84787 54.5708 6.73117C54.4272 6.61446 54.3116 6.46767 54.2324 6.30138C54.1531 6.1351 54.1122 5.95348 54.1126 5.76964C54.1129 5.58581 54.1546 5.40435 54.2345 5.23837L55.3387 3.02882C55.443 2.81471 55.483 2.57548 55.4539 2.33955C55.4248 2.10362 55.3279 1.88091 55.1746 1.6979C55.0213 1.51488 54.8181 1.37924 54.5892 1.30711C54.3602 1.23497 54.1152 1.22937 53.8831 1.29097L48.8637 2.68125C48.6767 2.73521 48.4795 2.74535 48.2879 2.71088C48.0962 2.67641 47.9153 2.59826 47.7594 2.48264C45.5873 0.871132 42.9454 0 40.2303 0C36.9022 0 33.7105 1.30782 31.3572 3.63574C29.0039 5.96367 27.6818 9.12101 27.6818 12.4132V13.3069C27.6829 13.4594 27.6272 13.607 27.5254 13.7215C27.4236 13.8359 27.2827 13.9093 27.1297 13.9276C20.0774 14.7469 13.3263 11.1967 6.04815 2.90469C5.89004 2.7322 5.68691 2.60617 5.4611 2.54047C5.23529 2.47477 4.99553 2.47194 4.7682 2.53229C4.5634 2.62541 4.38773 2.77138 4.25966 2.95486C4.13159 3.13834 4.05585 3.35256 4.04038 3.575C3.03514 7.65979 3.44157 11.9599 5.19485 15.7896C5.24672 15.8912 5.26937 16.0049 5.26031 16.1183C5.25125 16.2318 5.21083 16.3406 5.14347 16.4329C5.07612 16.5251 4.98441 16.5973 4.87839 16.6414C4.77237 16.6856 4.65611 16.7001 4.54232 16.6833L1.73145 16.1372C1.53184 16.1054 1.32742 16.1218 1.13561 16.1851C0.943793 16.2483 0.770261 16.3564 0.629783 16.5003C0.489305 16.6441 0.386042 16.8194 0.328784 17.0112C0.271526 17.203 0.261967 17.4057 0.300923 17.6019C0.517609 19.5072 1.1647 21.3399 2.19429 22.9643C3.22389 24.5888 4.60962 25.9633 6.24892 26.9863C6.355 27.0371 6.44446 27.1165 6.50706 27.2153C6.56966 27.3141 6.60286 27.4283 6.60286 27.5449C6.60286 27.6615 6.56966 27.7757 6.50706 27.8745C6.44446 27.9733 6.355 28.0527 6.24892 28.1035L4.91878 28.6248C4.75724 28.6889 4.61094 28.7855 4.48918 28.9085C4.36741 29.0315 4.27284 29.1782 4.21147 29.3393C4.15011 29.5004 4.12329 29.6724 4.13272 29.8443C4.14215 30.0162 4.18762 30.1843 4.26626 30.3379C5.00183 31.93 6.1168 33.322 7.51556 34.3943C8.91433 35.4667 10.5551 36.1874 12.2973 36.4948C12.4184 36.5383 12.5231 36.6176 12.597 36.722C12.671 36.8264 12.7107 36.9508 12.7107 37.0782C12.7107 37.2057 12.671 37.3301 12.597 37.4344C12.5231 37.5388 12.4184 37.6182 12.2973 37.6616C8.88502 39.0577 5.22312 39.7586 1.53068 39.7222C1.19787 39.6564 0.852253 39.724 0.569857 39.9103C0.28746 40.0965 0.0914176 40.3861 0.0248561 40.7153C-0.0417054 41.0445 0.0266666 41.3864 0.214931 41.6657C0.403195 41.9451 0.69593 42.139 1.02874 42.2049C7.42232 45.2045 14.3833 46.8372 21.4577 46.9964C27.6804 47.0903 33.7924 45.3628 39.0257 42.0311C43.3303 39.1886 46.8572 35.3366 49.2919 30.8187C51.7266 26.3007 52.9935 21.257 52.9796 16.1372V13.9773C52.9811 13.797 53.0223 13.6192 53.1004 13.4563C53.1784 13.2934 53.2913 13.1492 53.4314 13.0339L57.5473 9.63264Z" fill="#102025"/>
</svg>
